<?xml version="1.0" encoding="UTF-8"?> <svg xmlns="http://www.w3.org/2000/svg" width="287" height="284" viewBox="0 0 287 284" fill="none"><path d="M73.4722 16.0786H73.2867C72.9156 16.2635 72.5446 16.4483 72.3591 16.4483L71.4315 17.1875C71.4315 17.1875 71.246 17.1875 71.4315 17.3723C71.4315 17.3723 71.8025 17.5571 73.1011 16.6331C73.6577 16.2634 73.4722 16.2635 73.4722 16.0786Z" fill="#C1DFC4" fill-opacity="0.4"></path><path d="M71.4315 15.3395C71.0605 15.5243 70.6895 15.7091 70.504 15.7091C70.3184 15.7091 70.3184 15.894 70.3184 15.894C70.3184 15.894 70.504 15.894 70.6895 15.7091C71.0605 15.7091 71.4315 15.5243 71.4315 15.3395Z" fill="#C1DFC4" fill-opacity="0.4"></path><path d="M74.9563 13.861C75.3274 13.861 75.3274 13.861 75.6984 13.6762C75.6984 13.6762 76.0694 13.4914 76.626 13.3066C76.626 13.3066 77.1825 12.9369 77.368 12.9369C77.368 12.9369 77.368 12.9369 77.1825 12.9369C77.1825 12.9369 74.9563 13.6762 73.1012 14.7851L74.2143 14.4155C74.3998 14.0458 74.7708 13.861 74.9563 13.861Z" fill="#C1DFC4" fill-opacity="0.4"></path><path d="M72.7301 15.1547C72.7301 15.1547 72.7301 15.1547 73.6577 14.7851C73.8432 14.6003 74.3998 14.6003 74.5853 14.4155C74.5853 14.4155 74.5853 14.4155 74.7708 14.4155H74.5853C72.1736 15.1547 70.3184 16.4484 70.1329 16.6332C70.1329 16.6332 72.5446 15.3395 72.7301 15.1547Z" fill="#C1DFC4" fill-opacity="0.4"></path><path d="M75.1417 14.7851C75.3272 14.6003 75.5127 14.6003 75.5127 14.4155C75.6983 14.2306 75.8838 14.2307 75.8838 14.0458V13.861C75.3272 14.0458 74.5852 14.6003 74.5852 14.7851C74.5852 14.7851 74.5852 14.7851 74.3996 15.1547C74.5852 15.1547 75.1417 14.7851 75.1417 14.7851Z" fill="#C1DFC4" fill-opacity="0.4"></path><path d="M69.2053 19.2206C68.8343 19.2206 68.6488 19.4054 68.6488 19.4054C68.0922 19.775 67.3502 20.1447 67.3502 20.1447C67.5357 20.1447 68.4633 19.775 69.0198 19.4054C69.2053 19.4054 69.3909 19.2206 69.2053 19.2206Z" fill="#C1DFC4" fill-opacity="0.4"></path><path d="M70.3184 21.623C70.3184 21.623 70.1329 21.623 69.9474 21.623H69.7619C69.2053 21.8079 68.6488 21.8079 68.2778 21.9927C67.7212 22.1775 65.6805 23.1016 65.3095 23.4712C65.495 23.4712 65.6805 23.4712 65.866 23.4712C66.0516 23.656 66.0516 23.8408 66.0516 23.8408C65.8661 24.0256 64.5675 24.9497 64.1964 25.1345C64.0109 25.1345 64.0109 25.1345 64.0109 25.1345C63.8254 24.7649 64.3819 24.5801 64.3819 24.2104C64.1964 24.2104 62.8978 24.9497 62.7123 25.3193V25.5041C62.7123 25.8737 62.8978 26.0586 63.0833 26.4282C63.0833 26.613 63.2688 26.613 63.2688 26.7978C63.2688 26.9826 63.0833 27.1674 63.0833 27.3522C63.0833 27.3522 63.0833 27.3522 63.0833 27.5371C63.4544 27.9067 66.7936 25.8737 67.9067 24.9497C68.0922 24.7649 68.6488 23.4712 68.2778 23.656C67.9067 23.656 67.5357 23.8408 66.9792 24.0256C67.7212 23.4712 68.6488 23.1016 69.3908 22.5471C69.2053 22.5471 70.3184 21.623 70.3184 21.623Z" fill="#C1DFC4" fill-opacity="0.4"></path><path d="M60.486 21.4382C61.9701 20.699 63.2687 19.7749 64.7528 19.0356C63.2687 19.9597 63.2687 19.9597 63.2687 19.9597L68.2776 17.1875C68.4631 17.1875 68.4631 17.0027 68.6486 16.8179H68.4631C67.35 17.3723 60.3005 21.0686 58.8163 22.3623C59.3729 22.3623 59.9294 21.623 60.486 21.4382Z" fill="#C1DFC4" fill-opacity="0.4"></path><path d="M60.4861 31.9727C60.3006 31.9727 60.3006 31.9727 60.1151 32.1576C59.5585 32.712 59.002 33.2664 58.2599 33.8209C57.1468 34.5601 56.7758 34.7449 56.5903 34.9297C56.5903 34.9297 56.7758 34.9297 56.9613 34.9297C57.3324 34.7449 57.5179 34.9297 57.5179 34.9297C57.7034 35.1146 57.7034 35.2994 57.8889 35.2994C57.8889 35.2994 58.2599 35.2994 58.631 35.2994C60.6716 34.9298 61.4137 34.0057 61.4137 34.0057C61.5992 33.8209 61.0426 32.712 61.0426 32.712C61.0426 32.1576 60.4861 31.9727 60.4861 31.9727Z" fill="#C1DFC4" fill-opacity="0.4"></path><path d="M63.2688 23.4712C63.2688 23.4712 63.0833 23.4712 62.8978 23.4712C61.7847 23.8408 61.0427 24.3952 61.0427 24.5801C61.2282 24.5801 61.2282 24.5801 61.4137 24.5801C61.4137 24.5801 61.4137 24.5801 61.4137 24.9497C61.4137 25.1345 61.2282 25.5041 61.4137 25.3193C61.7847 25.1345 62.8978 24.2104 62.8978 24.2104C63.4544 23.656 63.6399 23.4712 63.2688 23.4712Z" fill="#C1DFC4" fill-opacity="0.4"></path><path d="M111.688 3.88108C110.946 4.80515 109.091 5.35958 107.978 5.54439C107.978 5.54439 102.783 7.02289 102.598 7.39252C101.114 9.24065 104.824 9.9799 104.824 9.9799C113.729 9.24065 113.729 9.42547 114.471 9.9799C114.471 9.9799 118.552 14.6002 117.254 17.0028C116.697 17.9269 116.697 18.1117 116.697 18.1117C116.883 18.6661 117.439 18.6661 117.625 19.2206C117.996 19.9598 117.625 20.6991 117.996 21.4383C119.109 21.2535 120.036 19.9598 121.521 20.5143C123.932 21.6231 122.819 23.4713 122.819 23.4713C121.892 24.5801 120.036 24.5801 119.109 25.8738C118.552 26.6131 118.181 28.4612 118.552 29.7549C118.738 30.3093 125.602 41.9526 128.941 43.0614C127.271 18.8509 125.973 7.76215 124.303 2.58738C125.787 7.20771 127.086 16.2635 128.941 43.0614C137.289 44.7248 137.475 44.5399 138.031 43.8007C138.959 42.8766 140.443 35.2993 140.443 35.1145C140.629 34.0056 140.072 32.8967 140.629 31.7878C141 31.2334 141 31.2334 143.04 30.679C149.533 28.646 149.533 28.646 149.719 27.5371C149.904 26.2434 149.904 25.5042 151.203 24.9498C153.986 23.4713 157.325 23.2864 160.108 21.8079C161.221 21.2535 162.519 20.8839 163.632 20.1446C163.632 20.1446 164.189 19.775 163.447 18.8509C162.519 17.5572 161.035 16.818 160.108 15.5243C159.551 14.785 159.551 13.6762 159.18 12.7521C158.624 11.6432 158.995 11.4584 159.551 10.904C160.293 10.1647 159.737 9.79509 158.067 8.87103C152.687 5.72921 152.687 5.5444 152.131 4.80515C152.131 4.80515 152.131 4.62033 152.316 4.62033C152.316 4.62033 152.502 4.62033 152.687 4.43551C151.017 2.95701 147.864 4.0659 147.122 1.10889C146.936 1.10889 146.751 0.924065 146.565 0.924065C146.565 0.739252 146.565 0.554445 146.751 0.554445H146.936C146.194 0.369632 144.153 0.369634 144.153 0.369634C142.855 0.369634 141 0.554445 140.629 0.554445C139.515 0.739258 138.402 0 137.289 0C135.62 0 132.095 0 130.796 0C128.199 0.184813 128.199 0.184821 127.828 0.369634C125.045 0.554447 125.045 0.554442 123.747 0.739255C125.416 0.924068 125.416 0.924065 125.973 0.924065C125.787 0.924065 125.787 0.924065 123.932 0.924065C123.19 0.924065 122.819 0.924065 122.077 0.924065C115.399 1.66332 110.761 3.69627 110.761 3.88108C110.575 3.88108 110.575 3.88108 111.688 3.88108Z" fill="#C1DFC4" fill-opacity="0.4"></path><path d="M86.6437 31.7878C87.0148 30.8637 86.8292 30.4941 86.2727 30.4941C86.2727 30.4941 84.4175 31.0485 84.0465 31.7878C83.861 32.3422 84.6031 33.4511 84.9741 33.6359C85.5306 34.1904 86.6437 31.7878 86.6437 31.7878Z" fill="#C1DFC4" fill-opacity="0.4"></path><path d="M100.001 5.17477C99.6297 5.35959 99.0732 5.54441 98.7022 5.72922C100.001 5.35959 104.453 4.25071 105.195 4.0659C102.227 4.98996 100.001 5.72921 97.4036 6.28365C96.847 6.46846 96.6615 6.46847 96.476 6.65328C96.476 6.8381 96.2905 7.57734 95.7339 8.13178C94.4353 7.76215 91.096 9.61029 90.9105 9.7951C91.2816 9.97991 91.6526 9.7951 91.8381 9.97991V10.1647C92.2091 10.1647 92.3947 10.1647 93.8788 9.61029C91.4671 10.904 91.096 10.7192 90.9105 10.3495C89.0554 10.3495 88.8699 11.0888 88.8699 11.4584C87.7568 12.1977 86.4582 12.1977 85.5306 13.1217C85.5306 13.1217 85.5306 13.3065 85.7161 13.3065C86.0871 13.3065 86.2726 13.3065 88.1278 12.9369C89.6119 12.5673 90.9105 11.6432 92.3946 12.0128C92.2091 12.3825 92.2091 12.3825 92.0236 12.5673C93.1367 12.7521 96.476 11.0888 96.105 10.3495C95.9194 10.3495 95.9194 10.3495 95.7339 10.1647C95.9194 9.79509 98.3311 8.31659 98.7022 8.31659C101.67 7.57734 102.783 6.46846 102.783 6.28365H102.598C105.381 5.5444 106.679 5.17477 107.607 4.62033C107.421 4.62033 107.421 4.62033 106.865 4.62033C106.865 4.62033 113.172 2.58739 113.543 2.58739C111.874 2.7722 111.874 2.77221 111.132 2.95702C112.801 2.5874 114.285 2.21776 115.955 1.84814C114.471 1.84814 111.874 2.21777 111.874 2.21777C111.874 2.21777 105.752 3.32664 104.453 3.69627L104.639 3.88109C104.453 3.88109 104.082 4.0659 103.526 3.88109C103.155 3.88109 97.7746 5.17478 97.218 5.72922C97.5891 5.72922 97.7746 5.72921 100.001 5.17477Z" fill="#C1DFC4" fill-opacity="0.4"></path><path d="M75.3274 15.7091C75.1418 15.894 75.1418 16.0788 74.9563 16.2636C74.7708 16.4484 74.7708 16.4484 74.0287 17.0028C74.0287 16.818 74.2143 16.6332 74.2143 16.4484V16.2636C74.2143 16.2636 73.6577 16.2636 73.1012 16.818H73.2867C72.7301 17.3725 71.8026 17.3725 71.0605 17.7421C71.246 17.7421 71.246 17.7421 71.4315 17.7421C71.4315 17.9269 71.4315 17.9269 71.4315 17.9269C71.617 17.9269 71.6171 17.9269 73.6577 17.3725C73.1012 17.7421 71.246 18.6662 71.246 19.0358C71.246 19.0358 73.4722 18.1117 73.8432 18.1117C74.0287 17.9269 74.0288 17.9269 75.3274 16.818C75.3274 16.818 75.3274 16.818 75.3274 17.0028C75.8839 16.4484 75.8839 16.4484 77.5535 15.1547C77.9246 14.9699 77.9246 14.7851 77.9246 14.7851C77.739 14.7851 77.739 14.7851 77.739 14.7851C77.739 14.9699 75.6984 15.5243 75.3274 15.7091Z" fill="#C1DFC4" fill-opacity="0.4"></path><path d="M97.5891 31.7879C98.5166 31.7879 100.557 34.3753 100.557 34.3753C101.114 34.9297 101.485 35.669 102.041 35.669C103.34 35.4842 105.381 30.4942 105.381 30.4942C105.381 30.3094 105.566 30.1246 105.381 29.9398L95.9194 27.722C96.1049 27.5372 96.476 27.3524 98.7022 26.2435C99.6297 25.8739 100.186 25.5043 100.186 25.3194C100.186 24.5802 96.847 21.4384 95.1774 21.2536C94.4353 21.0687 93.6932 21.4384 92.9512 21.0687C92.2091 20.6991 92.3946 19.5902 91.2815 19.4054C90.354 19.4054 88.3133 20.1447 86.8292 20.6991C85.3451 21.2536 85.3451 21.2536 85.1595 21.2536C84.974 21.0687 84.974 20.6991 84.7885 18.6662C84.232 18.4814 82.3768 18.6662 81.8203 18.851C79.0375 19.5902 70.3183 26.6131 71.988 27.722C73.6576 28.8309 79.0375 27.722 79.7796 27.3524C79.5941 26.9828 79.5941 26.6131 82.0058 26.2435C84.0465 26.0587 84.4175 25.5043 84.603 25.1346C85.1596 25.3195 86.4582 26.6131 86.4582 26.6131C87.2002 27.3524 87.3857 28.2765 88.1278 29.2005C88.8698 30.1246 90.9105 30.1246 90.9105 31.7879C90.9105 31.7879 90.5395 35.8538 84.7885 37.5171C83.1189 38.0715 81.2637 37.8867 79.5941 38.8108C78.852 39.1804 78.852 40.2893 79.0375 40.4741C79.4086 40.8437 80.3361 40.8437 83.3044 39.9197C85.5306 39.1804 85.5306 39.1804 89.6119 40.8437C89.2409 41.2134 89.2409 41.2134 87.5712 41.7678C88.4988 42.5071 95.3629 43.9856 96.847 43.2463C96.847 43.0615 96.847 43.0615 96.476 42.8767C96.2904 42.8767 96.2905 42.8767 93.1367 39.9197C95.5484 40.1045 96.2905 40.4741 97.5891 41.3982C97.7746 41.583 97.9601 41.7678 98.1456 41.583C98.8877 41.3982 100.186 38.4412 99.6297 37.8867C98.3311 36.4082 95.7339 36.593 94.9918 34.5601C94.4353 32.8968 97.5891 31.7879 97.5891 31.7879Z" fill="#C1DFC4" fill-opacity="0.4"></path><path d="M66.4226 18.2964C66.4226 18.2964 66.9792 18.1116 67.5357 17.9268L67.7212 17.742C67.5357 17.742 66.4226 18.2964 66.4226 18.2964Z" fill="#C1DFC4" fill-opacity="0.4"></path><path d="M119.294 23.656L120.779 23.2863C120.779 23.2863 121.15 23.1015 121.335 22.9167C121.335 22.7319 121.335 22.5471 121.335 22.5471C121.15 22.3623 120.964 22.1775 120.779 21.9926C120.593 21.8078 120.593 21.8078 120.593 21.623C120.593 21.623 120.407 21.4382 119.851 21.623C119.109 21.8078 117.254 22.9167 118.367 23.4711C118.367 23.656 118.738 23.8408 119.294 23.656Z" fill="#C1DFC4" fill-opacity="0.4"></path><path d="M90.5395 18.6661C90.725 18.6661 90.725 18.6661 90.5395 18.6661C90.354 18.4813 88.3133 17.7421 86.8292 18.1117C85.5306 18.2965 85.9016 19.2206 86.2727 19.4054C87.3858 20.1446 90.5395 18.6661 90.5395 18.6661Z" fill="#C1DFC4" fill-opacity="0.4"></path><path d="M80.3361 11.8281C79.9651 12.0129 79.2231 12.1977 79.0375 12.3825H79.2231C79.7796 12.1977 80.5217 12.1977 80.5217 12.1977C80.5217 12.3825 80.1506 12.3825 80.1506 12.5673C80.1506 12.7521 81.2637 12.1977 81.4492 12.1977C81.8203 12.0129 83.1189 10.904 83.1189 10.7192C82.9334 10.7192 82.7478 10.7192 82.5623 10.7192C82.7478 10.3496 83.1189 10.5344 83.3044 10.1647C83.3044 10.1647 83.3044 10.1647 83.1189 10.1647C82.0058 10.5344 80.5217 11.2736 80.3361 11.2736C80.5217 11.2736 80.8927 11.0888 81.0782 11.2736C81.0782 11.6433 81.0782 11.6433 80.3361 11.8281Z" fill="#C1DFC4" fill-opacity="0.4"></path><path d="M74.9563 17.9269C74.7708 18.1117 74.5853 18.1117 74.9563 18.4813C75.3274 18.6662 76.2549 18.4814 76.997 17.7421C77.368 17.3725 78.2956 16.4484 77.9246 16.4484H77.7391C76.997 16.6332 74.9563 17.9269 74.9563 17.9269Z" fill="#C1DFC4" fill-opacity="0.4"></path><path d="M87.3858 11.0888C87.2002 11.0888 87.2002 11.0888 87.2002 11.0888C86.6437 11.2736 86.0871 11.4584 85.5306 11.6433C84.7885 11.8281 84.232 12.0129 83.4899 12.1977C82.9334 12.3825 82.7479 12.3825 82.5623 12.5673C82.7479 12.5673 84.7885 12.1977 85.7161 12.0129C86.2727 11.8281 86.4582 11.8281 87.3858 11.0888Z" fill="#C1DFC4" fill-opacity="0.4"></path><path d="M82.5623 12.1976C82.7479 12.1976 84.7885 11.2735 85.3451 11.0887C85.5306 10.9039 85.7161 10.9039 85.7161 10.9039C85.7161 10.719 85.5306 10.9039 85.5306 10.719V10.5342C85.3451 10.5342 85.3451 10.5342 85.3451 10.5342C85.3451 10.5342 85.1596 10.5342 84.974 10.719C84.603 11.0887 84.232 11.4583 83.6754 11.6431C82.7479 11.6431 82.5623 11.8279 82.5623 12.1976Z" fill="#C1DFC4" fill-opacity="0.4"></path><path d="M87.2003 9.05586C88.6844 8.31661 88.6844 8.31661 88.6844 8.31661H88.4989C88.4989 8.31661 87.0148 8.68624 86.6437 9.05586C86.0872 9.24068 86.2727 9.4255 86.2727 9.4255C86.4582 9.4255 86.8292 9.24068 87.2003 9.05586Z" fill="#C1DFC4" fill-opacity="0.4"></path><path d="M90.3541 8.50142C90.9106 8.31661 91.0961 8.3166 91.2816 8.3166C91.0961 8.50141 90.9106 8.50142 90.3541 8.68623C88.6844 9.24067 88.3134 9.42549 88.1279 9.42549C87.7568 9.6103 87.7568 10.1647 87.9424 10.1647C87.9424 10.1647 87.9424 10.1647 89.0555 9.79511C89.4265 9.61029 89.983 9.79511 90.3541 9.6103C91.4672 9.24067 92.2092 8.50141 93.3223 8.13179C93.8788 7.94697 94.6209 7.76216 95.1775 7.39253H95.363C95.363 7.39253 95.363 7.39254 94.8064 7.20772C94.9919 7.20772 94.9919 7.02291 95.1775 7.02291C96.105 6.65329 96.105 6.65328 96.105 6.46847H95.9195C96.105 6.28365 96.2905 6.28366 96.2905 5.91404C96.4761 5.72922 96.8471 5.54441 96.8471 5.35959H96.6616C95.5485 5.54441 91.8382 7.02291 91.4672 7.20772C91.6527 7.20772 91.8382 7.20772 92.0237 7.20772C91.8382 7.39254 90.9106 7.57735 90.7251 7.76217C89.612 7.94698 89.0555 8.68623 89.0555 8.68623C88.8699 8.87105 90.1685 8.50142 90.3541 8.50142Z" fill="#C1DFC4" fill-opacity="0.4"></path><path d="M78.4811 17.9268C78.6666 17.9268 88.8699 16.8179 91.6527 14.2305C92.3947 13.4912 90.5396 13.3064 90.5396 13.3064C89.612 13.3064 84.9741 14.9698 83.861 15.3394C82.9335 15.709 82.3769 14.9697 82.5624 14.6001C82.5624 14.4153 82.7479 14.4153 83.119 14.4153C84.7886 13.8609 84.0466 13.4912 83.861 13.4912C83.49 13.4912 83.119 13.6761 82.5624 13.8609C82.0059 13.8609 81.6349 13.6761 81.0783 13.8609C80.8928 13.8609 80.5218 13.8609 80.1507 14.0457C79.9652 14.2305 79.0376 14.9698 79.0376 15.1546C79.2232 15.1546 79.2232 15.1546 79.5942 14.9698C80.1507 14.7849 80.7073 14.6001 80.8928 14.6001C81.0783 14.7849 80.3362 15.8938 80.3362 15.8938C79.7797 16.4483 79.0376 16.6331 78.6666 17.0027C77.739 17.9268 78.1101 17.9268 78.4811 17.9268Z" fill="#C1DFC4" fill-opacity="0.4"></path><path d="M286.443 145.818C286.258 141.752 286.072 136.207 285.516 132.141C285.33 130.848 285.145 129.739 284.959 128.63C284.032 125.303 283.846 124.934 281.991 113.29V113.475C277.168 97.7662 277.168 97.7661 277.168 97.0269C275.498 92.0369 274.756 90.3736 272.53 85.5685L267.521 75.5886C266.037 73.7405 264.553 72.0771 262.141 70.5986C264.367 72.0771 266.222 73.5556 267.521 75.5886C265.48 72.4468 263.069 68.0113 261.028 65.0543C252.123 52.8566 251.938 52.6718 246.372 46.7578L240.436 40.8437C240.25 40.6589 240.065 40.4741 239.694 40.2893C239.879 40.6589 240.065 40.8437 242.476 43.2463C242.105 43.0615 241.734 42.6919 241.178 42.3222C241.92 43.6159 243.033 44.3552 244.146 45.2792L243.96 45.4641C239.879 42.1374 236.354 38.0715 232.088 34.7449C234.128 36.0386 235.798 37.8867 238.024 38.9956C237.467 38.0716 231.16 32.5272 227.079 30.1246C224.11 28.2765 223.739 28.0916 223.368 27.722C223.554 27.722 223.739 27.9068 223.925 27.9068C223.554 27.722 223.368 27.5372 222.626 26.9828L222.441 27.1676C222.255 26.9828 221.699 26.798 219.658 25.5043C219.844 25.5043 220.029 25.6891 220.215 25.6891C219.844 24.9498 216.133 23.2865 215.948 23.1017C216.133 23.4713 216.133 23.4713 216.69 24.2106C215.391 23.8409 214.835 22.3624 213.536 21.9928C213.722 22.5472 214.464 22.9169 214.649 23.4713C214.278 24.3954 214.278 24.3954 214.278 25.1346C214.464 26.0587 217.246 31.2335 217.432 31.2335C219.658 34.5601 219.473 35.8538 219.473 35.8538C219.101 38.9956 219.101 38.9956 217.246 40.2893C216.69 40.6589 216.69 41.0286 217.061 41.7678C217.061 41.9526 221.699 52.6718 225.966 50.6388C227.264 50.0844 226.708 47.6818 226.337 46.7578C226.708 46.9426 234.314 54.5199 235.798 56.9225C236.54 58.0314 237.096 59.1402 238.21 59.1402C238.395 58.7706 238.581 55.8136 237.838 54.3351C236.169 51.1933 236.54 50.8236 237.467 50.0844C237.467 49.3451 237.467 48.9755 235.241 47.6818C233.757 46.7578 233.757 46.7578 231.717 43.4311C230.974 42.1374 232.273 40.4741 231.16 39.3652C228.192 36.2234 228.192 36.2234 228.006 36.0386C228.006 35.8538 227.821 35.8538 227.821 35.669L228.006 35.4842C229.119 35.8538 233.015 38.4412 233.201 39.1804C233.201 39.1804 233.015 39.1804 232.83 39.1804C235.798 45.6489 235.798 45.6489 238.581 48.2363C240.992 50.454 244.703 50.0844 247.114 52.3021C246.743 52.3021 246.372 51.9325 246.001 51.9325L245.816 52.1173C246.001 52.487 246.187 52.6718 246.372 52.8566C244.888 52.487 243.589 51.7477 242.105 51.5629C243.775 53.7807 246.001 55.444 247.3 57.8465C245.63 57.8465 245.63 55.444 243.96 55.6288L243.775 55.8136C243.775 55.8136 245.63 59.325 245.816 59.5099C246.001 59.8795 247.3 61.5428 247.3 62.2821C246.372 62.2821 246.372 62.2821 246.187 62.2821C246.001 62.6517 246.001 62.8365 245.816 63.2061L246.001 63.3909C241.549 63.0213 241.549 63.0213 241.549 63.5757C241.363 63.7606 241.178 63.7606 240.992 63.9454C240.065 63.3909 238.952 63.0213 237.653 62.8365L239.879 63.2061C239.508 63.0213 238.581 62.2821 236.725 62.2821C236.169 62.2821 235.983 62.2821 234.314 60.4339C233.015 58.9554 231.717 56.9225 231.717 55.2592C231.717 54.5199 230.603 51.5629 229.861 51.3781C229.676 51.3781 227.45 51.3781 227.821 52.487C228.006 53.0414 230.974 58.2162 233.015 60.6187C233.943 61.5428 233.943 61.7276 233.943 61.7276C233.757 61.9124 233.757 61.9124 233.201 61.9124C232.83 61.9124 232.088 62.0972 231.717 62.0972C231.531 62.2821 231.345 62.4669 231.345 62.6517C228.934 62.6517 228.934 62.6517 228.377 63.2061C228.563 63.7606 228.748 65.0542 229.49 67.272C229.305 67.4568 229.305 67.8264 229.119 68.0113C227.079 68.0113 227.079 68.0112 225.966 68.3809C225.966 68.5657 225.966 68.5657 226.893 70.5986C226.522 70.9683 225.78 71.1531 225.223 71.3379C225.223 71.8923 225.038 72.4468 224.852 73.0012C222.626 72.8164 222.255 72.6316 221.142 71.8923C221.328 72.2619 221.699 72.8164 222.07 73.3708C222.07 73.5556 221.884 73.9253 221.884 74.1101C221.513 74.2949 220.771 74.4797 220.4 74.6645C219.287 73.9253 219.287 73.9253 217.432 73.9253C217.246 74.1101 217.246 74.4797 217.061 74.6645C217.432 75.0341 218.174 75.5886 218.545 75.9582C218.359 76.143 218.174 76.3278 217.988 76.3278C228.748 79.2848 227.079 90.004 226.893 90.004C221.884 89.6344 217.061 88.1559 212.237 87.6014C212.423 87.9711 212.794 88.5255 213.165 88.8951C213.165 89.0799 213.722 102.202 215.391 102.756C215.02 106.822 215.02 106.822 214.835 107.192C218.359 107.007 219.101 106.822 220.586 107.192C221.142 109.594 221.142 109.594 221.142 109.594L229.305 106.822C231.531 106.452 232.088 103.68 230.974 101.832C232.273 96.4725 232.273 96.4724 235.612 95.1788C235.612 90.9281 235.612 90.9281 235.983 90.5584C237.467 89.2647 238.766 91.2977 240.25 91.2977C241.549 88.8951 242.662 87.4166 244.703 89.2648C244.888 89.2648 256.204 102.386 257.318 105.898C258.245 108.67 257.689 108.67 253.051 109.409C253.978 111.073 256.947 113.475 256.947 113.475C257.318 112.182 256.576 110.888 256.761 109.594C256.947 109.594 257.318 109.594 257.503 109.779C258.06 108.855 258.431 107.746 258.987 107.007C258.245 104.604 258.245 104.604 258.245 103.68C258.431 103.68 258.802 103.495 258.987 103.495C259.358 103.865 259.729 104.419 259.915 104.789C259.729 103.68 259.729 103.68 255.833 99.0598C255.833 98.875 256.019 98.5054 256.019 98.3206C254.164 97.5813 252.865 96.8421 248.042 87.047C248.227 86.6774 248.784 86.3078 249.155 86.1229L260.1 98.875C260.1 98.875 260.1 98.875 263.44 108.3L266.964 116.247C266.964 115.878 267.15 115.139 267.15 114.769C267.15 112.921 266.408 111.073 266.037 109.409C264.924 103.495 264.924 103.495 265.48 103.126C266.593 103.311 268.82 104.604 269.191 106.268C269.376 105.898 269.747 105.343 269.747 104.789C269.933 104.789 270.304 104.789 270.489 104.789C271.231 99.4295 267.335 94.8091 268.077 89.6344C268.448 89.4496 269.005 89.4496 269.376 89.6344C269.376 89.8192 269.191 90.004 269.005 90.3736C269.747 91.1129 269.933 91.2977 270.675 91.8521C270.86 92.7762 270.86 92.7762 270.675 94.2547C271.417 94.994 271.788 96.1028 272.344 96.8421C274.942 95.3636 271.046 92.7762 271.788 90.5584C272.901 90.3736 273.086 90.7432 273.457 91.4825C273.272 91.6673 273.272 92.0369 273.086 92.2218C273.457 92.7762 273.457 92.7762 274.014 95.1788C273.828 95.3636 273.643 95.5484 273.643 95.7332C275.498 100.354 279.765 103.865 279.579 109.225C279.394 109.409 279.208 109.409 279.023 109.594C276.797 108.116 276.982 103.126 273.272 104.235C273.272 104.604 273.086 105.159 272.715 105.528C272.344 105.343 271.788 105.159 271.231 105.159C271.231 105.528 271.602 106.083 271.973 106.452C271.231 107.192 270.118 106.637 269.191 107.192C269.191 107.746 269.005 108.3 269.005 108.855C269.191 108.855 269.562 109.04 269.747 109.04C270.118 111.812 270.86 116.802 274.199 119.574C274.385 119.389 274.571 119.204 274.756 119.02C274.756 118.835 274.756 118.465 274.756 118.28C275.869 119.204 276.24 120.683 277.539 121.422C277.724 121.053 277.91 120.313 277.91 119.944C278.281 120.313 278.652 120.683 279.208 120.683C279.765 131.032 279.765 132.511 278.652 135.283C277.168 135.098 276.982 134.914 276.426 133.435C276.055 133.435 275.498 133.62 275.127 133.989C270.118 133.62 270.675 126.412 265.48 126.412C264.553 128.075 265.295 130.108 264.553 131.772C264.367 131.772 263.996 131.957 263.811 132.141C262.698 131.402 251.381 121.053 250.639 119.759C250.454 119.389 250.639 118.65 251.01 118.096C251.567 117.172 251.567 117.172 251.196 111.073C249.897 110.333 249.711 110.149 248.969 109.779C248.042 110.518 248.042 110.518 243.775 109.594C243.404 109.964 243.033 110.333 242.847 110.888C237.467 108.855 233.015 114.769 227.821 112.921C227.264 112.921 227.079 112.921 227.079 112.921C225.595 113.29 225.038 113.29 223.368 111.442C222.997 111.257 222.997 111.258 222.997 111.258C222.812 111.442 222.441 111.627 222.255 111.812C221.328 113.106 222.07 114.769 220.957 116.063C219.658 117.541 217.432 117.541 216.319 119.204C215.948 119.759 216.133 120.498 216.133 121.237C215.762 127.706 215.762 127.706 214.093 128.63C212.608 129.369 209.826 131.402 209.455 131.957C208.527 133.435 201.292 146.002 201.292 146.002C200.921 149.329 203.147 152.101 203.333 155.428C203.333 158.2 199.437 159.494 200.735 162.636C202.591 167.441 205.188 171.691 207.414 176.312C208.342 178.16 215.206 184.813 216.504 184.628C222.997 184.074 229.305 181.671 235.983 182.226C236.169 182.226 236.54 182.411 236.54 182.595C237.653 183.519 236.911 185.368 238.024 186.476C239.137 187.4 240.621 187.031 241.92 187.4C242.847 189.988 242.847 189.988 241.734 192.39C252.865 194.423 259.915 196.271 265.109 198.859C260.1 196.456 252.865 194.423 241.734 192.39C238.766 199.229 238.766 199.229 239.323 201.261C240.065 204.403 240.992 208.654 237.096 218.079C235.241 222.33 231.717 225.472 229.305 229.538C227.079 233.234 226.708 237.67 224.667 241.366C216.504 255.781 216.319 255.966 215.02 257.445C214.093 258.369 213.722 258.923 212.794 260.956C216.875 262.25 221.884 258.923 223.554 257.814L230.047 253.379L238.21 246.91C240.065 245.062 241.178 242.475 243.033 240.627C245.259 238.594 248.227 237.485 250.454 235.452C255.833 230.462 260.657 220.297 261.213 219.003C263.254 214.014 270.304 206.251 272.344 204.218C275.684 200.522 279.95 191.097 281.064 187.4C280.136 187.216 280.136 187.216 278.837 187.4C278.466 187.031 278.466 187.031 279.208 180.932C279.394 178.714 279.023 176.496 278.837 174.279C278.652 168.55 279.765 163.005 279.394 157.276L277.91 139.349C278.281 139.904 278.281 139.904 278.652 142.491C279.023 142.121 279.394 141.567 279.394 141.012C283.104 154.504 279.208 168.18 279.579 181.856C281.064 181.117 281.064 181.117 281.806 181.302C285.701 172.8 285.701 172.8 285.887 171.691C285.887 171.876 285.887 172.246 285.701 172.431C285.701 172.061 285.887 171.322 285.887 170.952V170.398L286.258 167.256C286.443 165.777 286.629 164.114 287 159.124C287 159.309 287 159.679 287 159.863C286.072 155.243 286.443 149.883 286.443 145.818ZM285.516 161.527C285.145 160.972 285.145 160.972 285.516 155.797C285.33 157.461 285.33 157.461 285.33 158.2C284.959 147.111 285.145 146.187 285.33 144.709C285.887 145.633 286.258 153.764 286.072 158.57C285.701 160.418 285.701 160.787 285.516 161.527Z" fill="#C1DFC4" fill-opacity="0.4"></path><path d="M282.177 113.29C282.177 113.475 282.362 113.66 282.362 113.845L283.104 117.171V116.987C283.29 119.019 283.661 120.868 284.217 122.901C283.104 115.693 282.733 114.214 281.064 108.115C280.693 107.191 280.507 106.267 280.136 105.528C281.806 111.442 281.991 111.627 282.733 114.769C282.548 114.214 282.362 113.66 282.177 113.29Z" fill="#C1DFC4" fill-opacity="0.4"></path><path d="M279.58 103.865C279.58 104.05 279.765 104.235 279.765 104.419C279.58 103.68 279.209 102.941 279.023 102.202C279.023 102.386 279.209 102.756 279.209 102.941L277.353 97.7661C277.168 97.2116 277.168 97.0268 276.982 97.0268C277.724 99.0598 278.466 101.647 279.765 105.343C279.951 104.974 279.765 104.419 279.58 103.865Z" fill="#C1DFC4" fill-opacity="0.4"></path><path d="M285.145 129.184C284.959 126.966 284.588 124.934 284.032 122.901C284.217 124.564 284.588 126.412 284.959 128.815C285.145 128.815 285.145 128.999 285.145 129.184Z" fill="#C1DFC4" fill-opacity="0.4"></path><path d="M200.736 59.6945C200.55 59.8793 200.55 59.8793 200.736 59.6945C200.179 60.9882 199.808 63.0211 199.808 63.0211C199.623 63.9452 199.623 64.3148 199.994 64.4996C200.55 65.0541 202.591 64.8692 204.26 63.7604C204.631 63.5755 205.002 63.2059 205.559 63.0211C206.116 62.8363 206.672 63.0211 207.043 62.4667C207.229 62.097 207.229 61.3578 206.858 60.4337C206.672 59.8793 206.487 59.5097 206.116 59.14C205.745 58.5856 205.745 58.216 205.93 57.6615C206.116 57.4767 206.301 56.9223 206.116 56.3678C205.93 55.8134 205.559 55.4438 205.188 55.259C205.002 55.0742 204.817 55.0742 204.631 54.8893C204.075 54.7045 203.518 54.5197 202.962 54.3349C202.591 54.1501 202.405 53.9653 202.405 53.9653C202.405 53.9653 202.405 53.9653 202.22 53.9653C202.034 53.9653 198.695 54.8893 200.921 55.9982C201.107 55.9982 201.107 56.183 201.478 56.183C201.478 56.183 201.292 56.3678 201.107 56.3678C199.808 57.1071 199.437 57.2919 199.066 57.6615C198.88 57.8464 198.509 58.216 198.695 58.9552C198.695 59.14 198.88 59.5097 199.437 59.6945C199.808 59.6945 200.179 59.6945 200.736 59.6945Z" fill="#C1DFC4" fill-opacity="0.4"></path><path d="M61.9701 20.699C62.1556 20.699 62.1556 20.699 61.9701 20.699C61.5991 20.8838 59.0018 22.3623 58.8163 22.5471C59.0018 22.5471 59.1874 22.5471 61.9701 20.699Z" fill="#C1DFC4" fill-opacity="0.4"></path><path d="M271.046 122.346C271.046 122.161 269.747 120.683 269.747 120.683C269.562 120.498 269.376 120.313 269.191 120.313C268.82 120.129 268.263 120.313 267.892 120.129C267.15 119.944 267.15 119.944 267.15 119.944C266.779 119.944 266.779 120.313 266.965 120.498C267.521 121.053 270.304 122.531 271.046 122.346Z" fill="#C1DFC4" fill-opacity="0.4"></path><path d="M244.146 102.571C244.332 102.941 244.888 102.756 245.074 103.31C245.259 103.68 245.074 104.235 245.074 104.604C245.259 104.974 245.445 104.974 245.63 105.159C246.001 105.159 247.485 104.789 247.485 103.495C247.485 103.31 247.485 103.126 247.485 103.126C247.485 102.571 247.3 102.202 247.114 101.647C247.114 101.093 247.114 100.538 246.929 99.9838C246.743 99.0598 246.558 99.0598 246.187 99.0598C245.63 99.0598 244.517 99.6142 243.961 100.353C243.775 100.538 243.775 102.202 244.146 102.571Z" fill="#C1DFC4" fill-opacity="0.4"></path><path d="M236.54 102.202L237.096 101.462C237.096 101.278 236.725 101.093 235.983 100.908C235.241 100.908 233.757 101.093 234.314 101.647C234.685 102.017 235.612 102.386 236.169 102.386C236.354 102.386 236.354 102.386 236.54 102.202Z" fill="#C1DFC4" fill-opacity="0.4"></path><path d="M244.146 95.3635C243.961 95.5483 243.961 95.5483 243.961 95.9179C243.961 96.1027 244.146 96.2876 244.146 96.2876L245.445 97.7661C245.63 97.5812 245.445 95.5483 245.259 94.4394C245.259 94.4394 244.888 92.7761 244.703 92.5913C244.703 92.5913 244.703 92.5913 244.703 92.7761C244.703 92.7761 244.703 92.7761 244.703 92.9609C244.517 93.5154 244.703 94.0698 244.703 94.6242C244.517 94.9939 244.332 95.1787 244.146 95.3635Z" fill="#C1DFC4" fill-opacity="0.4"></path><path d="M276.055 126.227C276.055 126.227 276.797 126.412 276.797 126.227C276.982 126.042 276.982 124.564 276.982 124.564C276.982 124.564 276.982 124.564 276.982 124.379C276.982 124.194 276.982 124.194 276.982 124.194C276.797 124.194 276.611 124.379 276.426 124.379C276.24 124.379 276.055 124.379 276.055 124.194C275.869 124.009 275.684 123.825 275.498 123.825C275.313 123.825 275.313 123.825 275.313 123.825C275.127 124.009 275.313 125.303 275.869 125.858C275.869 126.042 275.869 126.042 276.055 126.227Z" fill="#C1DFC4" fill-opacity="0.4"></path><path d="M47.129 31.7878C47.3145 31.7878 47.3145 31.7878 47.3145 31.7878C48.242 31.2333 48.9841 30.4941 49.7262 29.9397C51.2103 28.8308 52.8799 27.9067 54.3641 26.9826C54.7351 26.7978 54.7351 26.7978 55.1061 25.8738C54.5496 26.0586 54.1785 26.4282 53.8075 26.613C54.1785 26.2434 54.1785 26.2434 54.1785 26.0586H53.993C52.1379 26.7978 52.1379 26.7978 43.7897 33.6359C43.0476 34.1904 42.4911 34.7448 41.9345 35.8537C43.9752 34.9296 45.4593 33.0815 47.129 31.7878Z" fill="#C1DFC4" fill-opacity="0.4"></path><path d="M58.631 24.0256C58.8165 24.0256 59.5585 23.656 60.1151 23.2864C62.7123 21.8078 64.0109 21.2534 64.0109 21.2534C64.753 20.8838 65.6805 20.699 66.4226 20.3293C66.9791 19.9597 69.3908 18.2964 69.3908 18.2964C69.7619 17.9268 69.9474 17.9268 69.9474 17.9268C69.5764 17.9268 69.2053 18.1116 69.2053 18.1116C68.4633 18.4812 67.9067 19.0357 67.1647 19.5901C68.0922 18.666 69.0198 17.9268 69.9474 17.0027C69.9474 17.0027 69.9474 17.0027 69.7619 17.0027C69.7619 17.0027 66.7936 18.4812 66.6081 19.0356C66.6081 19.4053 66.0516 20.1445 63.8254 20.699L64.0109 20.5142C64.3819 20.1445 65.3095 19.9597 64.9385 19.4053C64.9385 19.4053 58.8165 22.3623 58.8165 23.1015C58.8165 23.1015 58.8165 23.1015 61.7847 21.4382C61.4137 21.9927 60.8571 21.9927 60.4861 22.3623C60.4861 22.3623 60.6716 22.3623 61.2282 21.9927C61.4137 21.8078 61.7847 21.623 62.5268 21.4382C61.7847 21.8078 59.744 23.1015 58.4454 23.4712C58.4454 23.656 58.4454 24.0256 58.631 24.0256Z" fill="#C1DFC4" fill-opacity="0.4"></path><path d="M41.7492 38.9955C42.1202 39.1803 42.4912 38.8107 42.8623 38.8107C42.6768 39.3651 42.1202 39.5499 41.9347 40.1044C42.4912 40.1044 46.5726 38.2562 48.7988 36.4081C49.5408 35.8537 49.9118 35.484 50.2829 35.484C50.0974 35.8537 50.0974 35.8537 50.0974 35.8537C50.2829 36.0385 51.767 36.4081 51.767 36.4081C53.2511 35.8537 53.2511 35.8537 54.5497 34.3752C54.3642 34.3752 54.3642 34.3751 53.0656 35.1144C53.2511 34.56 54.5497 33.6359 55.6628 33.6359C56.0338 33.6359 56.0338 33.6359 56.2194 33.4511C56.2194 33.4511 56.9614 32.7118 56.7759 32.1574C56.0338 31.7878 55.6628 30.8637 56.0338 30.3093C56.4049 29.9396 59.5586 26.0586 59.3731 25.6889C59.1876 25.6889 59.0021 25.5041 59.0021 25.5041V25.3193C57.518 26.613 56.5904 28.2763 54.9208 29.2004C54.7352 28.4611 55.4773 28.2763 55.6628 27.7219C55.6628 27.7219 55.6628 27.7219 55.4773 27.7219C54.7352 27.9067 54.1787 28.4611 53.6221 28.6459C53.8077 28.2763 54.1787 28.0915 54.3642 27.7219C53.4366 28.0915 52.6946 28.8308 51.767 29.0156C52.3235 28.2763 53.2511 27.9067 53.8077 27.1674C53.2511 27.1674 45.8305 31.9726 46.016 32.8966C46.016 32.8966 46.2015 33.0815 46.3871 33.0815C46.2015 33.2663 46.2015 33.2663 45.274 33.8207C43.7898 34.7448 43.7898 34.9296 43.7898 35.1144H43.9754C44.7174 34.9296 45.4595 34.3751 46.3871 34.1903C46.9436 34.0055 47.5001 34.3751 48.0567 34.1903C46.9436 34.9296 45.645 35.484 45.0885 35.6688C41.5637 37.1473 41.1926 38.8107 41.7492 38.9955Z" fill="#C1DFC4" fill-opacity="0.4"></path><path d="M75.8838 46.0185C76.0693 45.6489 75.6983 45.6489 75.3273 45.8337C75.3273 45.8337 74.2142 46.0185 73.8432 46.3881C73.4721 46.9426 73.4721 47.497 73.6576 47.6818C74.3997 48.0514 75.6983 46.5729 75.8838 46.0185Z" fill="#C1DFC4" fill-opacity="0.4"></path><path d="M74.0287 43.2462L74.2142 43.0614C74.3998 42.8766 74.2142 42.3221 74.0287 42.3221C73.8432 42.1373 73.4722 41.9525 73.2867 41.7677C72.9156 41.3981 72.7301 40.8436 72.1736 40.474L71.9881 40.2892C71.4315 39.9196 70.875 40.1044 70.5039 39.7348C70.1329 39.5499 70.1329 39.1803 69.9474 38.9955H69.7619C69.3909 39.1803 67.9067 41.2133 67.9067 41.3981C67.7212 41.5829 67.5357 41.9525 67.3502 42.3221L65.6806 44.9095C66.6081 44.9095 66.6081 44.9095 66.6081 45.464C66.7936 46.0184 66.7936 46.0184 66.7936 46.0184C66.9792 46.0184 67.1647 45.8336 67.7212 45.2791C68.4633 44.7247 69.7619 43.6158 71.246 43.431C71.9881 43.0614 73.1012 43.6158 74.0287 43.2462Z" fill="#C1DFC4" fill-opacity="0.4"></path><path d="M71.4316 45.0943C71.4316 45.0943 69.3909 45.4639 68.6488 46.0184C68.2778 46.388 68.0923 47.1273 68.4633 47.3121C68.8344 47.6817 71.6171 46.0184 71.9881 45.2791C72.1736 45.2791 72.1736 44.9095 71.4316 45.0943Z" fill="#C1DFC4" fill-opacity="0.4"></path><path d="M66.0516 162.081C65.3095 162.451 65.6805 163.56 66.2371 163.744C66.6081 163.929 68.6488 164.299 68.6488 163.375C68.4632 163.005 67.1646 161.896 66.0516 162.081Z" fill="#C1DFC4" fill-opacity="0.4"></path><path d="M210.197 59.1402C210.011 59.1402 210.011 59.325 210.197 59.325H211.124C210.568 59.325 210.382 59.1402 210.197 59.1402Z" fill="#C1DFC4" fill-opacity="0.4"></path><path d="M113.358 69.6746C114.285 68.3809 114.657 67.6416 114.657 67.272H114.471C113.914 67.4568 112.616 68.5657 111.503 69.8594C110.204 71.5227 109.277 73.3708 107.978 74.8493C107.236 75.7734 106.308 76.3278 105.752 77.2519C105.566 77.6215 105.752 77.6215 105.752 77.8063C105.937 77.8063 105.937 77.8063 109.833 78.176C112.059 78.3608 113.729 78.5456 115.399 79.1C115.584 79.1 115.77 79.2848 116.141 79.2848C116.697 79.2848 117.439 78.7304 117.996 79.2848C118.367 79.6545 118.367 80.2089 118.367 80.5785C118.367 80.9482 118.552 80.9482 118.738 80.9482C119.294 80.9482 120.036 79.6545 120.222 78.7304C120.407 77.0671 119.109 74.6645 117.81 73.3708C117.254 72.6316 117.254 72.6316 114.842 73.186C114.1 73.3708 113.914 73.186 113.914 72.6316C113.543 71.5227 113.358 71.3379 112.987 71.1531C112.801 70.9682 112.801 70.9683 112.801 70.7834C112.801 70.4138 113.172 70.0442 113.358 69.6746Z" fill="#C1DFC4" fill-opacity="0.4"></path><path d="M203.518 49.7145C203.704 50.4538 202.962 51.1931 203.333 52.1171C203.518 52.1171 204.075 52.1171 205.188 51.3779C205.559 51.0082 205.93 50.8234 206.115 51.0082C207.229 51.5627 205.93 52.8564 206.301 53.5956C207.043 55.2589 207.971 55.6286 209.084 55.8134C210.939 56.3678 211.124 56.3678 211.495 56.5526C211.495 56.9223 211.31 57.1071 211.495 57.4767C212.052 58.4008 212.794 58.9552 213.165 59.8793C213.351 60.8033 212.237 60.2489 211.495 59.8793C211.124 59.6945 211.124 59.6945 210.197 59.6945C210.568 60.8033 211.866 61.3578 212.237 62.6515C212.423 63.3907 211.681 63.7603 210.753 64.13C210.568 64.3148 210.197 64.4996 210.197 64.6844C210.197 64.8692 210.753 65.2388 212.794 65.2388C213.722 65.2388 215.577 65.2388 215.762 65.7933C215.762 66.3477 215.391 66.3477 214.649 66.3477C214.093 66.3477 213.907 66.5325 213.536 66.7174C213.165 67.087 212.98 67.8262 212.609 68.1959C212.052 68.7503 211.495 69.1199 210.939 69.6744V69.8592C211.31 69.8592 211.31 69.8592 215.391 69.4896C217.432 69.3047 219.658 69.3047 221.699 69.1199L225.224 67.8262C225.224 67.8262 225.224 67.8262 225.224 67.6414C224.481 66.9022 223.554 67.6414 222.812 67.2718C222.441 66.1629 223.368 65.2388 222.997 64.13C222.255 62.2818 221.513 62.2818 220.957 62.2818C219.658 62.2818 218.545 60.4337 218.545 60.4337C218.545 60.4337 218.545 60.4337 219.658 60.6185C220.215 60.8033 220.771 60.9881 220.771 60.8033C220.771 60.6185 220.586 60.6185 220.215 60.2489C218.545 58.9552 216.504 58.216 214.835 56.7374C214.093 55.9982 213.536 55.0741 212.609 54.5197C211.124 53.5956 209.64 53.4108 208.898 53.226C209.826 52.4867 210.939 48.4209 208.527 48.2361C208.156 48.2361 207.6 48.2361 207.229 48.2361C205.744 48.4209 205.373 48.4209 205.373 48.0512C205.373 47.312 206.672 45.6487 205.559 45.6487C205.559 45.6487 202.591 45.6487 202.034 46.7575C202.034 46.9424 202.034 46.9423 202.034 47.1272C202.591 48.0512 203.333 48.7905 203.518 49.7145Z" fill="#C1DFC4" fill-opacity="0.4"></path><path d="M3.53298 89.0799C3.90401 88.1558 4.08953 87.2318 4.46056 86.3077C4.64607 85.7533 5.0171 85.1988 5.20262 84.6444V84.4596C5.20262 84.4596 5.38813 83.9051 5.20262 84.09C5.20262 84.09 5.20262 84.09 5.01711 84.09C4.08953 84.8292 3.16195 89.0799 3.53298 89.0799Z" fill="#C1DFC4" fill-opacity="0.4"></path><path d="M183.668 29.5702C183.483 29.0157 182.926 28.4613 182.37 28.2765C182.184 28.2765 182.184 28.2765 181.999 28.0917C181.071 27.9068 180.143 28.0917 179.401 27.722C178.845 27.5372 178.288 26.798 177.546 26.9828C176.619 27.1676 175.877 27.5372 175.135 27.722C174.392 27.9068 173.465 27.9068 172.723 28.0917C172.166 28.2765 172.537 28.8309 172.166 29.2005C171.795 29.3853 171.239 29.0157 170.868 29.2005L170.682 29.3853C170.497 30.1246 171.239 30.8639 170.311 31.6031C170.126 31.4183 168.27 29.9398 167.899 29.3853C167.157 28.0917 164.375 27.3524 163.447 27.9069C163.633 28.6461 164.56 28.4613 164.931 28.8309C164.746 29.755 163.633 29.5702 163.076 30.3094C163.262 30.4942 164.189 30.3094 164.746 30.3094C165.673 30.1246 168.456 31.0487 166.972 32.5272C167.714 33.4512 168.641 32.712 169.384 32.8968C170.126 33.0816 170.126 33.4512 170.126 34.1905C170.311 34.3753 170.497 34.3753 172.166 34.1905C173.279 34.0057 173.65 34.0057 173.836 34.0057C174.578 34.0057 175.32 34.3753 176.062 34.3753C176.248 34.3753 176.248 34.3753 176.433 34.3753C176.619 34.3753 176.99 34.3753 179.216 33.8209C181.071 33.2664 184.039 31.2335 183.854 30.679C183.668 30.3094 183.483 29.9398 183.297 29.5702C183.483 29.5702 183.483 29.5702 183.668 29.5702Z" fill="#C1DFC4" fill-opacity="0.4"></path><path d="M68.6488 158.57C69.5763 159.679 74.7708 160.048 74.9563 159.494C74.9563 159.124 68.2777 151.362 68.0922 151.362C67.3502 150.808 65.3095 149.514 61.4137 150.253C59.1875 150.992 57.7034 152.471 57.7034 152.471C58.0744 152.656 59.744 152.471 61.0426 151.732C63.0833 150.623 64.3819 151.177 64.3819 151.547C64.1964 151.732 64.0109 152.101 63.4543 151.732C63.4543 152.656 65.124 153.025 66.2371 153.395C68.0922 153.949 68.2777 154.319 68.6488 155.428C68.8343 155.982 69.0198 156.352 69.3908 156.906C69.7619 157.276 69.9474 157.461 69.9474 157.646C69.7619 158.385 69.0198 158.2 68.6488 158.57Z" fill="#C1DFC4" fill-opacity="0.4"></path><path d="M76.997 165.038C77.5535 165.408 77.1825 166.332 77.9246 166.517C79.2232 166.701 79.0377 164.853 80.3363 164.668C80.5218 164.668 80.5218 164.668 81.0783 164.668C83.119 165.038 86.6438 165.038 86.6438 165.038C86.8293 165.038 87.0148 165.038 87.0148 164.853C87.0148 164.299 86.4583 163.744 86.6438 163.19C87.2003 161.342 77.368 160.418 76.626 160.603C76.4405 160.603 76.4405 160.603 76.4405 160.787C76.4405 160.972 76.4405 160.972 76.626 161.157C78.1101 162.451 77.5535 164.114 77.5535 164.114C77.368 164.299 76.626 164.114 75.5129 163.929C73.4722 163.56 73.2867 163.744 73.2867 163.744C73.2867 163.744 73.2867 163.744 73.2867 163.929C74.3998 164.484 75.8839 164.299 76.997 165.038Z" fill="#C1DFC4" fill-opacity="0.4"></path><path d="M96.8471 73.9251C95.9195 74.2948 97.9601 75.2188 98.3312 75.4036C100.928 76.5125 101.67 75.2188 101.856 75.2188C102.227 74.6644 97.7746 73.7403 96.8471 73.9251Z" fill="#C1DFC4" fill-opacity="0.4"></path><path d="M256.019 231.755C253.236 235.267 253.236 235.452 251.381 236.006C249.897 236.561 249.34 237.3 247.114 240.442C246.001 242.105 245.63 242.475 244.517 243.214C241.178 245.801 236.54 251.715 236.354 252.085C237.653 252.085 237.653 252.085 242.291 247.649C246.001 243.953 249.34 240.072 253.051 236.191C253.051 236.376 253.051 236.376 252.68 236.745C252.865 236.561 252.865 236.561 253.236 236.191C254.164 235.082 256.761 231.571 257.132 230.277C256.761 230.831 256.761 230.831 256.019 231.755Z" fill="#C1DFC4" fill-opacity="0.4"></path><path d="M161.777 205.512C161.592 204.403 162.89 203.11 161.592 202.37C160.664 201.816 159.737 202.555 158.809 202.37C155.841 201.631 153.8 199.044 151.017 198.304C146.751 197.011 142.298 196.271 138.031 195.163C135.434 194.239 135.249 191.282 133.765 189.618C131.167 187.955 129.127 185.183 126.344 183.519C122.634 181.486 118.181 182.226 114.656 180.008C111.874 178.345 109.833 175.388 106.865 173.909C106.494 173.724 105.752 173.539 105.381 173.355C90.725 171.137 79.0376 169.474 77.739 181.117C73.2866 177.975 62.1557 182.965 63.0833 175.757C63.6398 171.322 61.7847 168.18 61.7847 168.18C58.4454 166.517 54.9206 168.18 51.3958 167.995C52.5089 164.299 52.5089 164.299 51.7669 162.451C53.251 158.939 53.251 158.939 53.8075 155.797C53.0655 155.243 47.5 150.623 46.2014 163.56C44.1607 163.375 42.8621 166.147 40.636 164.853C35.256 161.896 33.5864 158.015 32.8443 155.982C32.1023 153.395 34.1429 151.547 34.1429 149.144C34.1429 147.666 32.1023 146.926 32.6588 145.078C33.4009 142.861 37.4822 138.61 38.4098 137.871C40.0794 136.577 46.9435 138.055 46.9435 138.055C47.129 137.871 47.3145 137.686 47.5 137.501C46.9435 136.946 46.2014 136.762 45.6449 136.207C45.6449 136.022 45.8304 135.653 45.8304 135.468C47.129 134.729 57.8889 133.805 57.8889 133.805C62.5267 136.207 59.744 142.676 64.0109 145.263C69.2053 139.719 60.8571 134.914 61.7847 129.369C62.7123 123.64 68.4632 122.346 71.617 118.65C71.4315 118.465 71.246 118.28 71.0604 118.096C71.0604 117.911 71.0604 117.541 71.0604 117.356C71.246 117.356 71.617 117.172 71.8025 117.172C71.8025 116.987 71.8025 116.617 71.8025 116.432C71.617 116.432 71.4315 116.247 71.0604 116.247L72.1735 105.898C72.1735 107.376 72.1735 112.182 72.1735 112.182C72.7301 111.812 72.7301 111.812 73.1011 104.974C73.4721 105.713 74.2142 106.268 74.3997 107.192C75.3273 105.528 74.9563 103.495 76.4404 102.017C76.4404 102.017 82.5624 98.6902 83.1189 98.6902C83.6755 93.3306 83.6755 93.3306 86.6437 90.5584C87.2003 90.5584 87.2003 90.5584 95.9195 85.5685C95.9195 85.7533 95.7339 85.9381 95.5484 86.1229C95.9195 86.3077 96.6615 86.4925 97.2181 86.4925C97.2181 86.6774 97.2181 87.047 97.2181 87.2318C92.2092 90.7432 92.2092 90.7432 92.0237 91.8521C95.5484 91.8521 106.123 85.7533 104.268 80.9482C102.784 81.8722 102.784 83.7203 101.856 85.014C100.743 84.6444 99.8153 84.4596 99.0732 84.2748C99.8153 84.09 100.372 83.3507 100.372 83.3507C100.372 83.3507 100.372 83.3507 100.001 83.3507C98.7022 83.5355 97.7746 83.3507 97.5891 83.1659C96.847 82.7963 96.847 82.4266 96.847 81.8722C96.847 81.6874 96.847 81.6874 96.847 81.6874C96.847 81.8722 96.2905 82.7963 96.6615 83.7203C95.3629 83.1659 95.1774 82.4267 94.6209 80.7633C93.3223 80.3937 93.3223 80.2089 92.7657 79.4696C94.6209 78.9152 95.9195 78.5456 96.2905 76.6974C95.3629 75.7734 95.3629 75.7734 82.0058 84.09C91.0961 74.6645 91.0961 74.6645 100.557 71.7075C102.784 73.186 112.245 68.3809 113.729 65.7935C113.172 64.6846 113.172 64.6846 113.914 63.0213C113.729 62.8365 113.543 62.6517 113.543 62.282C112.801 62.0972 112.059 61.9124 111.317 61.7276C110.575 61.7276 110.575 61.7276 110.575 61.7276C110.019 61.7276 108.72 61.9124 106.123 63.5757C106.123 63.3909 105.937 63.2061 105.752 63.0213C106.494 61.9124 106.865 61.7276 109.648 60.6187C104.082 61.1732 98.7022 61.5428 92.9512 62.0972C98.3312 61.5428 103.155 61.1732 109.833 60.6187C110.019 60.6187 110.204 60.4339 110.204 60.2491C110.39 59.8795 108.163 58.0313 105.381 58.7706C104.824 58.9554 104.824 58.9554 104.453 58.7706C104.268 58.2162 104.639 57.6617 104.268 57.1073C103.711 56.368 102.784 56.5528 102.227 55.8136C102.041 55.444 102.227 55.2591 102.598 54.7047C103.155 53.7806 103.155 53.7806 101.856 51.3781C98.5167 45.2792 98.5167 45.2792 96.847 48.6059C96.6615 49.1603 97.2181 49.5299 96.847 50.0844C96.2905 50.6388 95.5484 50.0844 94.9919 50.8236C93.8788 52.3021 93.8788 52.3021 93.6933 52.3021C91.8381 52.8566 90.5395 51.3781 89.0554 51.0085C88.6844 50.454 89.4264 47.3122 90.354 46.3881C89.4264 46.0185 88.4989 46.5729 87.5713 46.2033C87.3858 46.2033 87.2003 46.0185 87.0147 45.4641C86.8292 45.2792 86.6437 44.9096 84.4175 44.1704C83.861 43.9855 83.861 43.9855 83.3044 43.9855C81.2638 44.54 78.8521 44.1704 76.8114 44.9096C77.1824 46.9426 74.7707 48.6059 76.4404 50.6388C76.0693 51.5629 74.9563 51.9325 74.7707 53.0414C74.7707 54.3351 76.0693 55.0743 76.0693 56.368C76.0693 56.368 76.2549 61.358 73.2866 62.0972C72.7301 62.282 71.2459 62.6517 71.4315 63.7605C71.2459 63.9454 71.246 63.9453 70.6894 64.4998C69.9474 67.4568 71.8025 70.9683 68.4632 73.3708C67.3501 71.7075 65.495 71.3379 64.1964 70.229C64.9384 68.0112 64.5674 67.0872 64.1964 65.9783C64.3819 65.7935 64.7529 65.4239 64.9384 65.239C64.9384 65.0542 64.9384 64.8694 64.9384 64.6846C64.7529 64.6846 64.3819 64.6846 64.0109 64.6846C62.7123 63.3909 61.0426 64.4998 59.5585 64.1302C58.0744 63.7605 57.3323 62.282 55.8482 61.7276C55.6627 61.7276 55.2917 61.5428 54.9206 61.5428C53.622 61.358 52.6944 62.282 51.5813 62.6517C51.2103 62.282 51.2103 62.282 50.6538 59.325C50.4683 58.2162 50.4683 58.2161 48.0566 58.0313C47.5 54.8895 55.2917 49.1603 58.6309 46.5729C58.2599 45.6489 57.1468 46.0185 56.5903 45.4641C63.0833 44.3552 63.0833 44.3552 66.7936 40.4741C64.1964 40.8437 63.8253 41.0285 61.7847 39.9197C64.1964 38.9956 67.3501 40.4741 69.2053 37.7019C69.0198 37.5171 68.6487 37.5171 68.4632 37.5171C68.4632 37.5171 69.7618 36.0386 70.8749 36.7778C75.1418 35.2993 75.1418 35.2993 76.2549 34.3753C76.4404 34.1905 76.8114 33.8208 76.9969 33.636C77.3679 32.8968 76.6259 31.9727 77.1824 31.2335C77.5535 30.4942 78.481 30.679 78.8521 30.1246C79.0376 29.7549 79.2231 29.3853 79.4086 29.0157C79.4086 29.0157 75.8838 25.3194 74.5852 30.4942C72.359 31.7879 70.8749 36.7778 68.2777 34.3753C68.4632 32.8968 71.617 31.7879 70.1329 30.3094C68.4632 30.8638 67.7212 32.712 66.6081 33.636C66.237 32.712 68.0922 30.4942 68.0922 30.4942C68.0922 30.4942 68.0922 30.4942 66.4226 30.3094C69.0198 26.0587 69.0198 26.0587 69.0198 25.6891C68.8343 25.6891 68.6487 25.5043 68.6487 25.3194C70.1329 23.1017 70.1329 23.1017 76.9969 19.0358C76.4404 19.0358 76.4404 19.0358 75.6983 19.0358C70.1329 20.3295 62.5267 30.679 62.5267 30.8638C62.5267 31.0486 62.7123 31.0486 62.7123 31.2335C63.2688 31.2335 63.8253 31.0486 64.5674 31.0486C64.5674 31.2335 64.5674 31.2334 64.5674 31.4183C63.2688 31.9727 63.0833 32.1575 62.5267 32.712C62.5267 33.0816 62.5267 33.0816 62.5267 33.0816C62.7123 33.0816 62.7123 33.0816 62.8978 33.0816C61.7847 35.1145 59.1875 35.8538 58.0744 38.0715C57.1468 37.1475 57.1468 37.1475 58.8164 35.2993C57.8889 35.1145 57.8889 35.1145 54.7351 37.5171C54.5496 37.7019 53.4365 38.2564 49.5407 38.0715C49.3552 37.7019 49.3552 37.1475 48.9841 36.7778C45.8304 37.5171 44.9028 39.3652 43.0477 43.0615C42.6766 42.1374 43.6042 41.3982 43.4187 40.4741C41.749 40.6589 40.2649 42.1374 38.4098 41.9526C39.1518 41.2134 40.4504 40.8437 40.8215 39.7348C40.636 39.7348 40.636 39.55 40.4504 39.55C40.0794 39.7348 39.8939 39.7348 38.7808 39.7348C38.5953 39.55 38.4098 39.3652 38.2243 39.1804C37.2967 39.3652 36.9256 40.1045 36.1836 40.4741C36.3691 40.2893 36.5546 39.9197 36.7401 39.7348C36.1836 40.1045 36.1836 40.1045 35.4415 40.8437C35.8126 40.1045 35.8126 40.1045 37.1112 38.626C35.0705 40.4741 35.0705 40.4741 31.3602 43.6159C32.4733 42.5071 33.7719 41.3982 35.0705 40.2893C35.0705 40.2893 32.2878 42.3222 28.9485 45.6489C29.134 45.4641 29.3195 45.0944 29.3195 45.0944C27.2789 47.497 24.4961 50.454 22.4555 52.8566C13.5508 64.4998 13.3652 64.6846 9.28389 71.3379C9.28389 71.1531 9.46942 71.1531 9.46942 70.9682C6.87221 77.6215 6.8722 77.6215 6.50117 79.4696C6.31565 80.0241 6.13015 80.7633 5.94463 81.3178C6.13015 81.5026 6.31565 81.8722 6.31565 82.057C5.38808 84.6444 5.38808 84.6444 4.64602 89.2647C4.4605 90.3736 4.64602 91.2977 5.01705 92.4066C4.83154 92.4066 4.64602 92.2217 4.27499 92.2217C4.08948 92.2217 4.08948 92.2217 3.90397 92.0369C3.90397 92.0369 3.90396 92.0369 3.71844 91.6673C3.71844 91.4825 3.53293 90.9281 3.34742 90.9281C3.34742 90.9281 2.97638 92.5914 3.34742 93.7002C3.71845 94.8091 4.4605 94.6243 4.4605 94.6243C4.64602 94.6243 4.83154 94.4395 5.01705 94.0699C5.20257 93.8851 5.20257 93.5154 5.20257 93.3306C5.20257 93.1458 5.20257 92.961 5.20257 92.7762C5.5736 93.8851 5.94463 94.8091 5.94463 95.918C5.5736 95.7332 5.01705 95.3636 4.64602 95.1787C0.193652 100.723 -1.47598 128.63 1.49226 133.805C1.86329 133.805 1.86329 133.805 8.35632 147.111C7.98529 147.111 7.24324 147.111 6.87221 147.111C7.61427 148.775 13.3652 156.167 13.3652 156.167C13.9218 155.428 14.4783 154.689 11.8811 150.807C10.768 149.144 9.2839 147.111 7.05772 137.871C9.84044 139.904 10.2115 141.382 10.5825 143.045C10.768 144.339 11.1391 145.633 11.6956 146.557C12.8087 148.405 14.2928 150.068 15.5914 151.916C17.261 154.319 20.0438 155.613 21.3424 158.2C22.4555 160.233 21.8989 163.005 24.1251 164.668C24.4961 164.853 24.8672 165.038 25.2382 165.223C25.7948 165.408 26.7223 165.962 27.2789 166.147C29.5051 166.701 31.9167 167.071 34.3284 167.625C36.7401 168.18 39.1518 166.886 41.5635 168.18C46.9435 171.137 46.9435 171.137 48.7986 171.322C49.1697 171.322 49.5407 171.322 49.7262 171.507C58.0744 172.615 61.5992 182.965 70.8749 182.78C74.9563 175.942 77.5535 184.074 78.2955 187.955C78.6666 189.249 78.6666 189.249 76.2549 194.239C76.2549 194.239 74.0287 203.479 74.9563 205.142C75.1418 205.327 75.3273 205.882 75.5128 206.067C78.481 210.502 90.9106 222.7 91.0961 222.885C94.0643 225.472 98.1456 226.026 101.485 228.429C103.897 230.092 105.752 233.604 106.679 238.039C106.679 238.224 111.503 259.478 119.665 270.936C130.054 285.536 140.258 284.058 140.443 283.873C130.611 278.883 130.611 278.883 131.538 274.817C130.24 273.338 130.24 273.338 127.643 266.316C128.014 266.131 128.014 266.131 129.869 266.316C129.869 266.131 129.869 266.131 127.643 262.989C129.312 261.51 129.312 261.51 129.312 260.217C129.498 260.217 129.683 260.032 129.683 260.032C132.651 260.956 133.765 258.553 133.022 257.26L132.095 255.966C138.959 255.781 141.927 239.148 141.927 238.963C142.855 236.93 145.452 235.637 146.565 235.082C148.977 234.158 148.977 231.201 150.832 229.723C151.574 228.983 152.316 228.983 152.873 229.168C153.8 229.353 153.986 229.353 154.171 228.429C154.542 226.396 154.171 224.178 154.357 222.145C154.357 221.036 153.8 219.743 154.542 218.634C155.47 217.34 155.841 216.786 155.099 216.046C154.913 215.862 154.913 215.677 154.728 215.492C160.479 213.459 162.519 207.175 162.519 207.175V206.991C162.334 206.621 161.777 206.067 161.777 205.512ZM17.261 75.7734C19.3017 75.0341 21.5279 74.4797 23.7541 73.9253C21.3424 74.4797 19.3017 75.0341 17.261 75.7734ZM82.5624 194.054C85.1596 193.684 87.7568 193.499 90.5395 193.13C88.1278 193.499 85.3451 193.869 82.5624 194.054ZM141 230.462C140.814 229.538 140.629 226.211 140.072 220.297C140.443 223.624 140.629 227.135 141 230.647V230.462Z" fill="#C1DFC4" fill-opacity="0.4"></path><path d="M90.1684 165.777C89.4263 166.332 90.3539 167.256 91.2814 167.441C92.0235 167.625 94.2497 167.256 94.2497 167.071C94.2497 166.886 94.0642 166.701 92.58 166.147C90.7249 165.592 90.5394 165.777 90.1684 165.777Z" fill="#C1DFC4" fill-opacity="0.4"></path></svg> 